<svg xmlns="http://www.w3.org/2000/svg" width="124.687" height="57.803" viewBox="0 0 124.687 57.803">
  <g id="Group_3" data-name="Group 3" transform="translate(-1051.873 -240.306)">
    <g id="Group_1" data-name="Group 1" transform="translate(1051.873 240.306)">
      <path id="Path_1" data-name="Path 1" d="M1059.528,261.19c-3.187,0-5.153-1.4-5.153-5v-7.118h-2.5v-2.68h2.5V243.14h3.187v3.247h5.36v2.68h-5.36v6.939c0,1.817.833,2.294,2.68,2.294h2.68v2.89Z" transform="translate(-1051.873 -241.234)" fill="#fff"/>
      <path id="Path_2" data-name="Path 2" d="M1070.345,259.051c0-2.293,1.847-3.485,4.765-3.812l6.731-.715v-.864c0-2.442-1.072-3.306-3.9-3.306-2.739,0-4.08.893-4.08,3.068v.119h-3.187v-.119c0-3.366,2.8-5.9,7.506-5.9s6.821,2.561,6.821,6.105v9h-2.949v-3.693h-.208c-.774,2.5-3.127,3.991-6.492,3.991C1072.28,262.923,1070.345,261.493,1070.345,259.051Zm5.868,1.548c3.365,0,5.629-1.251,5.629-4.169l-5.809.655c-1.667.208-2.472.6-2.472,1.757C1073.561,260.034,1074.366,260.6,1076.213,260.6Z" transform="translate(-1057.921 -242.67)" fill="#fff"/>
      <path id="Path_3" data-name="Path 3" d="M1096.39,260.262V240.306h3.216v19.956Z" transform="translate(-1066.448 -240.306)" fill="#fff"/>
      <path id="Path_4" data-name="Path 4" d="M1104.718,255.239c0-4.617,3.157-7.714,7.982-7.714,4.588,0,7.714,2.532,7.714,7.029a6.863,6.863,0,0,1-.119,1.4h-12.57c.119,2.859,1.519,4.378,4.945,4.378,3.1,0,4.378-1.013,4.378-2.77v-.238h3.216v.268c0,3.157-3.1,5.332-7.506,5.332C1107.905,262.923,1104.718,260.183,1104.718,255.239Zm3.038-1.072h9.62v-.06c0-2.74-1.578-4.05-4.735-4.05C1109.365,250.057,1107.934,251.515,1107.756,254.167Z" transform="translate(-1069.175 -242.67)" fill="#fff"/>
      <path id="Path_5" data-name="Path 5" d="M1131.649,262.625v-14.8h2.948v4.586h.209a5.852,5.852,0,0,1,6.165-4.884c4.11,0,6.137,2.77,6.137,6.195v8.906h-3.218v-8.042c0-2.77-1.25-4.169-4.319-4.169-3.246,0-4.7,1.668-4.7,4.884v7.327Z" transform="translate(-1077.992 -242.67)" fill="#fff"/>
      <path id="Path_6" data-name="Path 6" d="M1158.891,260.262V240.306h3.218v11.02h4.229l4.437-5.867h3.753l-5.57,7.118,5.541,7.684h-3.783l-4.378-6.047h-4.229v6.047Z" transform="translate(-1086.912 -240.306)" fill="#fff"/>
      <path id="Path_7" data-name="Path 7" d="M1183.519,255.239c0-4.617,3.307-7.714,8.22-7.714,4.945,0,8.251,3.1,8.251,7.714,0,4.557-3.306,7.684-8.251,7.684C1186.826,262.923,1183.519,259.8,1183.519,255.239Zm13.314,0c0-3.157-1.489-4.884-5.094-4.884-3.573,0-5.063,1.727-5.063,4.884,0,3.127,1.49,4.825,5.063,4.825C1195.344,260.064,1196.833,258.366,1196.833,255.239Z" transform="translate(-1094.975 -242.67)" fill="#fff"/>
    </g>
    <path id="Path_8" data-name="Path 8" d="M1197.729,284.407h20.107v-1.34h-20.107a.566.566,0,0,1-.4-.967l14.217-14.218-.948-.948-32.656,32.656.948.947,14.217-14.217a.566.566,0,0,1,.967.4v20.108h1.34V286.72a.566.566,0,0,1,.966-.4l14.217,14.217.948-.948-14.217-14.218a.565.565,0,0,1,.4-.965Z" transform="translate(-41.276 -8.718)" fill="#fff"/>
    <g id="Group_2" data-name="Group 2" transform="translate(1051.997 271.543)">
      <path id="Path_9" data-name="Path 9" d="M1052.058,296.163c0-1.965,1.625-2.814,3.857-3.057l5.7-.631v-.922c0-2.329-1.019-3.251-3.64-3.251-2.571,0-3.929.922-3.929,3.033v.1h-1.723v-.1c0-2.524,2.087-4.586,5.774-4.586,3.64,0,5.193,2.086,5.193,4.731v7.5h-1.553V295.75h-.121c-.7,2.208-2.815,3.469-5.6,3.469C1053.659,299.22,1052.058,298.1,1052.058,296.163Zm4.342,1.723c2.912,0,5.217-1.286,5.217-4.173v-.1l-5.168.582c-1.8.17-2.669.607-2.669,1.844C1053.78,297.254,1054.581,297.885,1056.4,297.885Z" transform="translate(-1052.058 -286.749)" fill="#fff"/>
      <path id="Path_10" data-name="Path 10" d="M1072.077,292.378c0-3.276,2.257-5.629,5.944-5.629,2.524,0,4.513,1.189,5,3.324h.121v-3.081h1.553v10.845c0,3.955-2.5,5.508-6.114,5.508-3.251,0-5.726-1.626-5.726-4.416h1.723c0,2.111,1.408,2.936,4.076,2.936,3.106,0,4.318-.946,4.318-3.93V294.8h-.121c-.486,1.844-2.256,3.2-5.022,3.2A5.368,5.368,0,0,1,1072.077,292.378Zm6.211,4.1c2.959,0,4.682-1.48,4.682-4.027v-.412c0-2.353-1.795-3.76-4.561-3.76-2.693,0-4.609,1.043-4.609,4.1S1075.692,296.478,1078.288,296.478Z" transform="translate(-1058.612 -286.749)" fill="#fff"/>
      <path id="Path_11" data-name="Path 11" d="M1094.261,292.984a5.921,5.921,0,0,1,6.283-6.235c3.517,0,6.017,2.038,6.017,5.6a4.875,4.875,0,0,1-.122,1.116h-10.554c.1,2.693,1.48,4.319,4.658,4.319,2.814,0,4.124-1.043,4.124-2.791v-.169h1.723V295c0,2.5-2.474,4.222-5.823,4.222C1096.711,299.22,1094.261,296.794,1094.261,292.984Zm1.625-.582h9.05v-.364c0-2.524-1.6-3.857-4.416-3.857C1097.414,288.181,1096.007,289.782,1095.886,292.4Z" transform="translate(-1065.876 -286.749)" fill="#fff"/>
      <path id="Path_12" data-name="Path 12" d="M1115.939,298.977V286.992h1.553v3.76h.121a4.957,4.957,0,0,1,5.095-4c3.372,0,5.047,2.4,5.047,5.241v6.987h-1.723v-6.745c0-2.475-1.188-3.906-3.93-3.906-2.912,0-4.441,1.772-4.441,4.853v5.8Z" transform="translate(-1072.973 -286.749)" fill="#fff"/>
      <path id="Path_13" data-name="Path 13" d="M1136.789,292.984a5.973,5.973,0,0,1,6.332-6.235c3.349,0,5.969,1.99,5.969,4.877v.194h-1.7v-.145c0-2.135-1.553-3.349-4.294-3.349-3.2,0-4.585,1.723-4.585,4.658s1.383,4.658,4.585,4.658c2.741,0,4.294-1.213,4.294-3.348v-.145h1.7v.194c0,2.887-2.62,4.876-5.969,4.876A5.973,5.973,0,0,1,1136.789,292.984Z" transform="translate(-1079.799 -286.749)" fill="#fff"/>
      <path id="Path_14" data-name="Path 14" d="M1157.926,303.219v-1.577h1.82a1.949,1.949,0,0,0,2.135-1.358l.583-1.213-5.944-11.961h1.892l3.518,7.133,1.335,2.936h.146l1.286-2.96,3.323-7.109h1.893l-6.5,13.66a3.782,3.782,0,0,1-3.979,2.45Z" transform="translate(-1086.26 -286.867)" fill="#fff"/>
    </g>
  </g>
</svg>
